<?xml version="1.0" encoding="utf-8"?>
<!DOCTYPE svg PUBLIC "-//W3C//DTD SVG 1.0//EN" "http://www.w3.org/TR/2001/REC-SVG-20010904/DTD/svg10.dtd">
<svg version="1.0" xmlns="http://www.w3.org/2000/svg" width="831px" height="608px" viewBox="0 0 831 608" preserveAspectRatio="xMidYMid meet">
 <g fill="#000000">
  <path d="M255 606.5 c-49.8 -7.9 -85.2 -55.8 -77.6 -105 2.9 -19.5 11.5 -37 24.8 -51 14.8 -15.6 33.9 -25.5 55.2 -28.4 5.3 -0.8 54.4 -1.1 153.5 -1.1 157.1 0 150.9 0.2 161.3 -5.1 5.4 -2.8 15.3 -12.2 18.5 -17.7 5.7 -9.7 7.8 -23.9 5.2 -35.1 -3.4 -14.9 -14.2 -26.9 -30.2 -33.4 l-5.2 -2.2 -241.5 -0.5 -241.5 -0.5 -8.8 -2.8 c-22.2 -6.9 -40.2 -20.1 -52.6 -38.6 -11.8 -17.4 -17.2 -39.3 -15 -60.7 3.9 -37.8 30.3 -69.2 67.9 -80.6 7.4 -2.2 8.4 -2.2 69.3 -2.6 33.9 -0.1 61.7 -0.5 61.7 -0.8 0 -0.2 -1.3 -3 -2.9 -6.2 -5.9 -11.7 -8.3 -21.5 -8.9 -36.1 -0.7 -19.8 2.2 -32.8 10.9 -49 12.2 -22.6 32.8 -38.8 58.6 -45.9 l9.8 -2.7 241 0 c221.8 0 241.6 0.1 248.1 1.7 29.1 6.8 52.3 25.4 64.8 51.9 7.5 15.9 10.4 32.2 8.5 48.4 -1.4 12.7 -3.4 19.6 -8.8 31 -12.3 25.7 -32.8 42.5 -61.9 50.8 l-7.7 2.2 -334.5 0.5 -334.5 0.5 -5.8 2.3 c-11.8 4.8 -22.3 15.3 -26.8 27 -3.1 8 -3.7 21.3 -1.4 29.8 3 11.3 12.6 23.4 22.6 28.4 11.6 6 -10.3 5.5 253.4 6 l241 0.5 8 2.3 c17.2 4.8 32 13.7 44.1 26.4 17.2 18.1 25.4 39 25.4 64.6 0 41.3 -27.3 77.1 -68 89.4 -7.4 2.2 -8.5 2.2 -69.2 2.6 -34 0.1 -61.8 0.5 -61.8 0.8 0 0.2 1.2 2.8 2.6 5.7 7.2 14 9.9 28 9.1 45.9 -1.7 40.9 -29.2 74.6 -69.6 85.6 l-9.6 2.6 -56.5 0.2 c-43.7 0.2 -58.4 0 -65 -1.1z m128.1 -49.6 c17.9 -8.6 27.9 -25.9 26.6 -45.9 -1.2 -19 -13.8 -35.1 -32.2 -41.2 -7 -2.3 -7.3 -2.3 -61.5 -2.3 -50.5 0 -54.9 0.1 -60 1.9 -20.8 7 -33 23.7 -33 45 0 16.9 7.4 30.9 21.1 39.7 10.9 6.9 9.9 6.8 73.9 6.6 l57.5 -0.2 7.6 -3.6z m368.6 -418.5 c13.1 -4.5 22 -12.5 28.2 -25.4 3.5 -7.3 3.6 -7.8 3.6 -19.5 0 -11.7 -0.1 -12.2 -3.6 -19.5 -6.2 -12.8 -14.9 -20.6 -27.7 -24.9 l-6.2 -2.1 -238.7 0.2 -238.8 0.3 -6.9 3.3 c-9.2 4.3 -15 9.2 -19.8 16.6 -18.8 29.1 -2.4 66.8 31.7 72.5 2.8 0.5 110.1 0.8 238.5 0.7 l233.5 -0.1 6.2 -2.1z"/>
 </g>
</svg>